{
  "accessors": [
    {
      "bufferView": 2,
      "componentType": 5126,
      "count": 2284,
      "max": [
        5.039389133453369,
        1.790177345275879,
        4.8272504806518555
      ],
      "min": [
        -5.042322635650635,
        -2.393646717071533,
        -5.017349720001221
      ],
      "type": "VEC3"
    },
    {
      "bufferView": 2,
      "byteOffset": 27408,
      "componentType": 5126,
      "count": 2284,
      "max": [
        0.9999181628227234,
        0.9994812607765198,
        0.9998392462730408
      ],
      "min": [
        -0.9999182224273682,
        -0.9999853372573853,
        -1.0
      ],
      "type": "VEC3"
    },
    {
      "bufferView": 1,
      "componentType": 5126,
      "count": 2284,
      "max": [
        0.9982270002365112,
        0.9923920035362244
      ],
      "min": [
        0.0005920000257901847,
        0.0013200044631958008
      ],
      "type": "VEC2"
    },
    {
      "bufferView": 0,
      "componentType": 5125,
      "count": 4116,
      "type": "SCALAR"
    }
  ],
  "asset": {
    "extras": {
      "author": "Raph3D (https://sketchfab.com/anndaniau)",
      "license": "CC-BY-4.0 (http://creativecommons.org/licenses/by/4.0/)",
      "source": "https://sketchfab.com/3d-models/jake-subway-surfers-50be24c8b2fe4628a401b339bb2e2958",
      "title": "Jake Subway Surfers"
    },
    "generator": "Sketchfab-14.71.0",
    "version": "2.0"
  },
  "bufferViews": [
    {
      "buffer": 0,
      "byteLength": 16464,
      "name": "floatBufferViews",
      "target": 34963
    },
    {
      "buffer": 0,
      "byteLength": 18272,
      "byteOffset": 16464,
      "byteStride": 8,
      "name": "floatBufferViews",
      "target": 34962
    },
    {
      "buffer": 0,
      "byteLength": 54816,
      "byteOffset": 34736,
      "byteStride": 12,
      "name": "floatBufferViews",
      "target": 34962
    }
  ],
  "buffers": [
    {
      "byteLength": 89552,
      "uri": "scene.bin"
    }
  ],
  "extensionsUsed": [
    "KHR_materials_specular"
  ],
  "images": [
    {
      "uri": "textures/Matriau.001_baseColor.png"
    }
  ],
  "materials": [
    {
      "doubleSided": true,
      "extensions": {
        "KHR_materials_specular": {
          "specularColorFactor": [
            1.0,
            1.0,
            1.0
          ],
          "specularFactor": 0.0
        }
      },
      "name": "Matriau.001",
      "pbrMetallicRoughness": {
        "baseColorTexture": {
          "index": 0
        },
        "metallicFactor": 0.0,
        "roughnessFactor": 0.5
      }
    }
  ],
  "meshes": [
    {
      "name": "Object_0",
      "primitives": [
        {
          "attributes": {
            "NORMAL": 1,
            "POSITION": 0,
            "TEXCOORD_0": 2
          },
          "indices": 3,
          "material": 0,
          "mode": 4
        }
      ]
    }
  ],
  "nodes": [
    {
      "children": [
        1
      ],
      "matrix": [
        1.0,
        0.0,
        0.0,
        0.0,
        0.0,
        2.220446049250313e-16,
        -1.0,
        0.0,
        0.0,
        1.0,
        2.220446049250313e-16,
        0.0,
        0.0,
        0.0,
        0.0,
        1.0
      ],
      "name": "Sketchfab_model"
    },
    {
      "children": [
        2
      ],
      "name": "root"
    },
    {
      "children": [
        3
      ],
      "matrix": [
        1.0,
        0.0,
        0.0,
        0.0,
        0.0,
        2.220446049250313e-16,
        1.0,
        0.0,
        0.0,
        -1.0,
        2.220446049250313e-16,
        0.0,
        0.0,
        0.0,
        0.0,
        1.0
      ],
      "name": "GLTF_SceneRootNode"
    },
    {
      "children": [
        4
      ],
      "matrix": [
        0.19443422555923462,
        0.0,
        0.0,
        0.0,
        -0.0,
        -2.458436808565933e-06,
        -0.1944342106425311,
        0.0,
        0.0,
        0.1944342106425311,
        -2.458436808565933e-06,
        0.0,
        0.0,
        -8.824586075206753e-06,
        6.200518691912293e-05,
        1.0
      ],
      "name": "Sketchfab_model_7"
    },
    {
      "children": [
        5
      ],
      "name": "root_6"
    },
    {
      "children": [
        6
      ],
      "matrix": [
        1.0,
        0.0,
        0.0,
        0.0,
        0.0,
        -3.371747936409264e-07,
        0.999999999999943,
        0.0,
        0.0,
        -0.999999999999943,
        -3.371747936409264e-07,
        0.0,
        0.0,
        0.0,
        0.0,
        1.0
      ],
      "name": "GLTF_SceneRootNode_5"
    },
    {
      "children": [
        7
      ],
      "matrix": [
        1.0,
        0.0,
        -0.0,
        0.0,
        -0.0,
        -3.371747936409264e-07,
        -0.999999999999943,
        0.0,
        0.0,
        0.999999999999943,
        -3.371747936409264e-07,
        0.0,
        0.0,
        0.0,
        0.0,
        1.0
      ],
      "name": "RootNode (gltf orientation matrix)_0_4"
    },
    {
      "children": [
        8
      ],
      "name": "RootNode (model correction matrix)_1_3"
    },
    {
      "children": [
        9
      ],
      "name": "Jake.obj.cleaner.materialmerger.gles_2_2"
    },
    {
      "children": [
        10
      ],
      "name": "_3_1"
    },
    {
      "children": [
        11
      ],
      "matrix": [
        1.0,
        0.0,
        0.0,
        0.0,
        0.0,
        1.0,
        0.0,
        0.0,
        0.0,
        0.0,
        1.0,
        0.0,
        0.0,
        -2.740759555308614e-06,
        0.06122589111328125,
        1.0
      ],
      "name": "Object_7.001_0"
    },
    {
      "mesh": 0,
      "name": "Object_11"
    }
  ],
  "samplers": [
    {
      "magFilter": 9729,
      "minFilter": 9987,
      "wrapS": 10497,
      "wrapT": 10497
    }
  ],
  "scene": 0,
  "scenes": [
    {
      "name": "Sketchfab_Scene",
      "nodes": [
        0
      ]
    }
  ],
  "textures": [
    {
      "sampler": 0,
      "source": 0
    }
  ]
}
